<svg width="440" height="493" viewBox="0 0 440 493" fill="none" xmlns="http://www.w3.org/2000/svg">
<path d="M0 53H440V422H0V53Z" fill="url(#paint0_linear_212_2750)"/>
<path d="M-212 291.091C-196.266 287.81 -180.677 287.198 -165.67 289.286C-151.465 291.262 -137.69 295.651 -124.734 302.339C-100.353 314.919 -79.0613 335.522 -63.1543 361.909C-55.9163 373.918 -44.862 384.709 -30.3008 393.984C-17.2247 402.315 -1.5984 409.275 16.1426 414.668C47.3601 424.16 84.0401 428.044 111.858 424.804C142.09 421.283 179.756 439.584 199.52 450.806C226.845 466.323 249.724 484.992 253.949 492.694L253.582 492.957C249.386 485.307 226.572 466.714 199.307 451.228C179.585 440.027 142.001 421.761 111.876 425.271C84.0084 428.518 47.2768 424.631 16.0068 415.125C-1.76492 409.719 -17.4218 402.746 -30.5234 394.398C-45.136 385.09 -56.2339 374.253 -63.5039 362.187C-79.372 335.863 -100.61 315.314 -124.927 302.766C-137.848 296.097 -151.582 291.719 -165.746 289.749C-180.713 287.671 -196.257 288.275 -211.946 291.549L-212 291.091ZM-211.896 287.115C-193.686 283.317 -173.548 283.773 -155.197 288.402C-120.671 297.122 -87.5671 321.484 -61.9873 357.023C-55.9307 365.441 -48.2469 372.986 -39.1494 379.455C1.19165 408.134 67.2114 416.91 114.748 412.892C125.182 412.007 136.921 413.372 149.643 416.956C199.671 431.035 249.472 471.912 255.503 482.904L255.141 483.163C249.129 472.21 199.449 431.458 149.516 417.41C136.844 413.849 125.142 412.479 114.753 413.356C90.131 415.437 62.4449 413.983 36.7861 409.261C6.05112 403.602 -20.2914 393.43 -39.3896 379.854C-48.5237 373.361 -56.2378 365.783 -62.3232 357.329C-87.4158 322.467 -119.759 298.372 -153.572 289.312C-154.152 289.156 -154.733 289.006 -155.314 288.859C-173.613 284.244 -193.686 283.785 -211.843 287.574L-211.896 287.115ZM-211.792 283.136C-195.038 279.64 -173.388 280.569 -155.304 285.581C-114.597 296.845 -81.4589 327.987 -60.8271 352.131C-53.9769 360.146 -45.9711 367.069 -37.0244 372.717C-17.389 385.109 8.32549 393.649 39.4014 398.101C62.9172 401.468 89.9724 402.46 117.637 400.97C128.35 400.394 140.044 401.956 152.389 405.61C181.202 414.141 206.553 429.978 222.746 441.761C242.396 456.061 254.643 468.698 257.06 473.104L256.695 473.368C254.365 469.122 241.888 456.271 222.502 442.159C206.335 430.393 181.02 414.58 152.259 406.063C139.95 402.419 128.302 400.865 117.633 401.438C89.9473 402.927 62.8664 401.933 39.3252 398.563C8.1946 394.107 -17.5672 385.549 -37.2461 373.126C-46.2225 367.46 -54.2635 360.508 -61.1357 352.463C-81.7318 328.362 -114.81 297.271 -155.426 286.037C-173.469 281.046 -195.04 280.113 -211.738 283.595L-211.792 283.136ZM-211.695 279.164C-198.683 276.447 -176.231 276.513 -155.413 282.77C-126.329 291.514 -94.1185 313.207 -59.6699 347.247C-52.0372 354.788 -43.7074 361.096 -34.9033 365.988C11.328 391.696 77.0421 390.107 120.523 389.053C131.472 388.79 143.115 390.542 155.135 394.266C185.052 403.541 210.289 420.06 226.191 432.282C245.016 446.751 256.598 459.627 258.614 463.306L258.255 463.57C256.253 459.92 244.717 447.111 225.938 432.679C210.062 420.473 184.865 403.98 154.999 394.723C143.023 391.011 131.42 389.258 120.509 389.526C87.3998 390.329 41.4182 391.441 0.916016 380.589C-11.8255 377.175 -24.0224 372.578 -35.1074 366.411C-43.9371 361.502 -52.2999 355.172 -59.957 347.609C-94.3618 313.615 -126.519 291.951 -155.543 283.223C-176.303 276.977 -198.673 276.914 -211.641 279.623L-211.695 279.164ZM-211.591 275.185C-199.378 272.634 -175.571 273.438 -155.516 279.949C-123.559 290.323 -90.0043 316.076 -58.5029 342.361C-50.0043 349.456 -41.5855 354.982 -32.7754 359.256C6.70854 378.416 56.0368 377.82 99.5605 377.3C107.864 377.201 115.71 377.108 123.418 377.138C134.564 377.186 146.164 379.132 157.889 382.928C188.945 392.972 214.048 410.168 229.639 422.829C246.889 436.832 258.209 449.93 260.181 453.519L259.81 453.775C257.853 450.21 246.576 437.177 229.368 423.21C213.802 410.571 188.743 393.402 157.742 383.377C146.051 379.6 134.494 377.655 123.383 377.606C115.68 377.573 107.838 377.668 99.5342 377.767C55.9706 378.291 6.59457 378.889 -32.9648 359.688C-41.8047 355.397 -50.2451 349.855 -58.7734 342.742C-90.2476 316.484 -123.766 290.756 -155.658 280.399C-175.65 273.91 -199.369 273.104 -211.536 275.643L-211.591 275.185ZM-211.487 271.21C-201.285 269.082 -176.196 269.957 -155.624 277.134C-129.946 286.098 -100.933 306.636 -70.2178 328.387C-65.9646 331.396 -61.6729 334.439 -57.3457 337.478C-48.1499 343.934 -39.4192 348.861 -30.6533 352.527C4.87979 367.388 45.3725 366.412 84.5361 365.47C99.0675 365.117 112.795 364.787 126.304 365.225C137.603 365.587 149.155 367.726 160.63 371.587C192.859 382.424 217.812 400.293 233.068 413.381C250.17 428.047 260.197 440.934 261.728 443.722L261.368 443.982C259.846 441.212 249.86 428.384 232.8 413.753C217.567 400.69 192.654 382.848 160.484 372.031C149.041 368.184 137.526 366.051 126.262 365.688C112.765 365.253 99.0417 365.583 84.5156 365.933C45.3121 366.879 4.7766 367.854 -30.8213 352.961C-39.6141 349.282 -48.3686 344.349 -57.585 337.872C-61.9162 334.832 -66.2078 331.789 -70.4609 328.78C-101.15 307.047 -130.141 286.52 -155.773 277.577C-177.982 269.83 -202.986 269.905 -211.434 271.668L-211.487 271.21ZM-211.385 267.235C-204.45 265.789 -178.585 265.769 -155.73 274.323C-137.862 281.01 -117.803 293.853 -94.5791 308.725C-82.3334 316.565 -69.6673 324.674 -56.1826 332.606C-46.2749 338.434 -37.4869 342.628 -28.5254 345.806C4.29669 357.456 39.9417 355.723 74.4111 354.045C92.505 353.163 111.218 352.256 129.193 353.314C140.602 353.99 152.106 356.325 163.377 360.253C196.807 371.905 221.591 390.45 236.503 403.954C253.48 419.329 262.262 432.064 263.288 433.935L262.927 434.189C261.907 432.33 253.161 419.653 236.225 404.318C221.341 390.837 196.598 372.327 163.228 360.696C151.989 356.777 140.521 354.451 129.142 353.778C111.185 352.715 92.4839 353.625 74.3994 354.505C39.8914 356.182 4.2117 357.916 -28.6787 346.248C-37.663 343.06 -46.4698 338.855 -56.4004 333.017C-69.8931 325.082 -82.5591 316.973 -94.8076 309.127C-118.014 294.27 -138.054 281.437 -155.888 274.765C-178.359 266.357 -204.656 266.3 -211.331 267.693L-211.385 267.235ZM-211.288 263.254C-207.244 262.409 -179.898 261.864 -155.845 271.501C-143.002 276.646 -128.296 285.608 -111.271 295.988C-94.7075 306.083 -75.9311 317.529 -55.0361 327.716C-44.8539 332.68 -35.4924 336.393 -26.4141 339.069C4.44609 348.173 36.4661 345.561 67.4287 343.046C88.567 341.33 110.421 339.552 132.068 341.394C143.548 342.371 155 344.898 166.111 348.905C234.654 373.621 264.563 423.641 264.832 424.133L264.481 424.395C264.2 423.883 234.371 374.013 165.971 349.351C154.886 345.355 143.467 342.832 132.021 341.859C110.409 340.017 88.5643 341.793 67.4434 343.509C37.5342 345.94 6.63657 348.453 -23.2812 340.437C-24.3678 340.145 -25.4509 339.84 -26.5381 339.52C-35.6327 336.839 -45.0145 333.119 -55.2158 328.146C-76.1297 317.949 -94.9145 306.502 -111.484 296.4C-128.499 286.028 -143.19 277.074 -156.006 271.941C-179.986 262.338 -207.209 262.873 -211.234 263.713L-211.288 263.254ZM-211.181 259.281C-207.987 258.614 -179.325 258.665 -155.944 268.688C-146.504 272.735 -135.568 279.297 -122.908 286.896C-104.281 298.077 -81.1006 311.985 -53.8672 322.841C-43.5203 326.965 -33.8409 330.072 -24.2832 332.345C5.13356 339.334 33.0986 335.981 62.7031 332.434C86.0589 329.638 110.21 326.743 134.964 329.48C146.363 330.739 157.767 333.462 168.866 337.563C237.804 363.386 265.262 412.267 266.396 414.341L266.041 414.603C264.907 412.541 237.524 363.785 168.717 338.012C157.65 333.919 146.272 331.207 134.903 329.947C110.186 327.215 86.0587 330.106 62.7295 332.899C34.3952 336.294 5.09372 339.805 -24.3887 332.804C-33.9665 330.525 -43.6626 327.416 -54.0244 323.282C-81.286 312.419 -104.484 298.496 -123.119 287.313C-135.768 279.722 -146.693 273.168 -156.11 269.132C-179.415 259.139 -207.948 259.077 -211.126 259.739L-211.181 259.281ZM-211.04 255.296C-210.729 255.288 -180.823 254.491 -156.047 265.868C-148.988 269.112 -140.755 274.09 -131.219 279.856C-105.418 295.463 -70.0804 316.832 -22.1562 325.612C6.20615 330.806 33.3658 326.388 59.6328 322.112C94.5909 316.422 130.73 310.54 171.615 326.225C208.785 340.484 233 361.014 246.768 375.729C261.678 391.67 267.895 404.414 267.965 404.555L267.595 404.793C267.534 404.665 261.34 391.964 246.459 376.058C232.72 361.379 208.559 340.892 171.464 326.662C130.681 311.014 94.5826 316.888 59.6777 322.573C33.3789 326.855 6.1837 331.277 -22.2402 326.072C-70.2344 317.278 -105.602 295.892 -131.429 280.269C-140.954 274.51 -149.183 269.532 -156.219 266.3C-180.919 254.957 -210.749 255.755 -211.049 255.763L-211.04 255.296Z" fill="url(#paint1_linear_212_2750)"/>
<path d="M706.149 15.585C705.894 15.7413 680.389 31.3901 653.238 33.9258C645.503 34.6463 635.884 34.4518 624.742 34.2256C594.595 33.6106 553.306 32.7736 507.412 49.1318C480.253 58.8155 458.941 76.2202 438.331 93.0566C410.902 115.464 382.545 138.628 339.295 145.487C299.976 151.723 268.741 146.05 249.46 140.19C228.576 133.841 216.82 125.912 216.689 125.825L216.891 125.435C217.012 125.519 228.726 133.418 249.562 139.752C268.8 145.594 299.967 151.256 339.208 145.032C382.351 138.192 410.677 115.056 438.062 92.6797C458.697 75.8221 480.038 58.3947 507.256 48.6904C553.217 32.3095 594.539 33.1471 624.717 33.7637C635.845 33.9886 645.461 34.1845 653.171 33.4658C680.222 30.9402 705.646 15.3459 705.923 15.1768L706.149 15.585ZM704.278 12.0635C701.846 14.2381 676.998 28.5252 651.738 31.5352C641.539 32.75 628.787 32.5348 614.024 32.2832C592.302 31.9145 565.273 31.4601 536.261 35.6758C525.238 37.2773 515.302 39.427 505.889 42.2373C476.919 50.893 454.376 67.7789 430.512 85.6533C411.683 99.7526 392.216 114.336 369.409 124.342C358.908 128.952 347.67 132.294 336.007 134.292C263.392 146.399 215.172 117.793 213.155 116.565L213.332 116.162C215.351 117.383 263.441 145.912 335.912 133.829C347.543 131.84 358.752 128.501 369.228 123.907C391.999 113.915 411.449 99.3464 430.256 85.2627C453.097 68.1556 476.717 50.4637 505.75 41.7861C515.184 38.9704 525.136 36.8162 536.176 35.2148C565.217 30.9916 592.269 31.4509 613.999 31.8174C628.749 32.0676 641.487 32.2803 651.661 31.0674C676.842 28.0688 701.583 13.8545 704.002 11.6934L704.278 12.0635ZM702.385 8.56934C699.305 11.3225 675.895 25.4679 650.246 29.1484C636.552 31.1144 619.334 30.7051 599.399 30.2285C580.008 29.7674 558.025 29.2447 534.836 30.8701C523.536 31.6625 513.572 33.1265 504.371 35.3477C473.094 42.8938 446.669 61.1659 421.112 78.8252C403.664 90.8805 385.627 103.348 365.959 112.576C355.529 117.47 344.348 121.007 332.722 123.093C261.013 135.958 210.106 107.603 209.613 107.305L209.786 106.901C210.271 107.196 261.043 135.481 332.621 122.637C344.218 120.554 355.369 117.03 365.768 112.149C385.406 102.939 403.436 90.478 420.869 78.4316C445.556 61.3717 471.058 43.7469 500.976 35.7305C502.062 35.4394 503.152 35.1615 504.254 34.8955C513.471 32.67 523.455 31.2005 534.776 30.4072C557.987 28.781 579.978 29.3022 599.379 29.7656C619.3 30.2409 636.5 30.6504 650.165 28.6875C675.733 25.0139 699.041 10.9395 702.108 8.19922L702.385 8.56934ZM700.478 5.07324C695.194 9.79352 672.805 22.7429 648.735 26.7617C629.917 29.9053 606.125 28.8123 578.576 27.5449C564.051 26.8781 549.028 26.1883 533.384 26.0605C521.89 25.9678 512.182 26.7289 502.832 28.458C468.582 34.7798 438.579 54.1043 409.566 72.792C394.338 82.6027 378.585 92.7443 362.489 100.815C352.271 105.935 341.141 109.665 329.416 111.898C294.639 118.523 263.902 114.854 244.236 110.615C221.846 105.789 207.873 99.1504 206.05 98.043L206.235 97.6416C208.049 98.7421 221.961 105.348 244.295 110.16C263.925 114.394 294.608 118.052 329.323 111.439C341.016 109.214 352.11 105.495 362.302 100.388C378.384 92.3299 394.125 82.1908 409.347 72.3867C438.393 53.6803 468.425 34.3392 502.743 27.999C512.118 26.268 521.848 25.5058 533.367 25.5967C549.02 25.7222 564.043 26.4117 578.573 27.082C606.099 28.3457 629.87 29.4392 648.65 26.3008C672.315 22.3466 695.118 9.24785 700.202 4.70312L700.478 5.07324ZM698.579 1.58008C690.808 8.52386 668.642 20.3102 647.238 24.3809C620.518 29.4563 585.124 26.177 547.648 22.6982C542.461 22.219 537.222 21.7286 531.955 21.2607C520.763 20.267 510.738 20.3657 501.313 21.5732C463.111 26.4701 428.531 47.5622 395.085 67.96C382.677 75.5311 370.954 82.68 359.036 89.0557C349.07 94.3912 337.995 98.3149 326.128 100.709C292.799 107.438 262.255 104.44 242.498 100.733C220.355 96.5831 205.228 90.4358 202.508 88.7871L202.688 88.3818C205.392 90.02 220.454 96.1367 242.544 100.277C262.267 103.973 292.764 106.97 326.032 100.252C337.866 97.862 348.904 93.9524 358.841 88.6348C370.746 82.2623 382.467 75.1144 394.872 67.5488C428.35 47.1277 462.967 26.0158 501.242 21.1143C510.696 19.9038 520.745 19.7979 531.965 20.7988C537.236 21.2656 542.474 21.7561 547.662 22.2354C585.107 25.7125 620.476 28.9944 647.146 23.9229C670.252 19.5276 691.869 6.96088 698.304 1.20996L698.579 1.58008ZM696.682 -1.91406C687.38 6.40125 666.361 17.6071 645.737 21.9961C612.876 28.9905 570.939 23.4663 530.516 16.4531C519.608 14.5582 509.554 13.9819 499.787 14.6855C456.013 17.8343 413.591 43.0138 376.159 65.2266C369.017 69.4635 362.27 73.4678 355.579 77.2959C345.902 82.8271 334.884 86.9414 322.832 89.5166C290.914 96.3461 260.576 94.0059 240.743 90.8369C218.803 87.3347 202.452 81.6515 198.949 79.5293L199.142 79.1211C202.618 81.2303 218.901 86.8787 240.787 90.3711C260.588 93.534 290.874 95.8736 322.734 89.0547C334.747 86.4801 345.728 82.3865 355.375 76.873C362.063 73.0505 368.806 69.0466 375.948 64.8096C413.413 42.5734 455.876 17.3677 499.735 14.2158C509.537 13.5127 519.617 14.092 530.559 15.9873C570.945 22.9909 612.837 28.5123 645.635 21.5352C666.193 17.1589 687.138 5.99762 696.405 -2.28418L696.682 -1.91406ZM694.782 -5.41309C684.871 3.44616 665.395 14.6148 644.238 19.6055C614.678 26.5743 575.937 23.8932 529.083 11.6377C518.702 8.92329 508.334 7.6258 498.264 7.79102C445.372 8.64319 389.258 42.8765 352.129 65.5303C342.779 71.2327 331.819 75.5359 319.548 78.3213C289.001 85.247 258.885 83.559 239.002 80.9258C215.465 77.8074 198.997 72.4482 195.411 70.2705L195.591 69.8613C199.15 72.0216 215.545 77.3474 239.023 80.457C258.876 83.0886 288.944 84.7736 319.437 77.8574C331.664 75.0839 342.589 70.8004 351.904 65.1123C380.176 47.8628 419.441 23.9093 459.943 13.0566C472.685 9.6426 485.545 7.52381 498.229 7.32227C508.33 7.15861 518.738 8.46011 529.15 11.1807C575.943 23.4183 614.624 26.1011 644.124 19.1484C665.226 14.1775 684.63 3.04708 694.506 -5.7832L694.782 -5.41309ZM692.881 -8.90137C680.12 2.50323 660.905 12.5235 642.737 17.2256C601.852 27.8244 557.583 17.4237 527.644 6.83008C517.704 3.31417 507.308 1.32127 496.736 0.90332C473.535 -0.0109844 446.996 5.45082 417.858 17.1338C395.809 25.9753 371.882 38.6438 348.669 53.7666C339.679 59.6214 328.771 64.1154 316.253 67.123C287.034 74.142 257.161 73.1025 237.246 70.9951C213.078 68.4362 196.154 63.6141 191.858 61.0068L192.042 60.5967C196.183 63.1088 213.415 67.9991 237.259 70.5273C257.143 72.6331 286.972 73.6709 316.139 66.666C328.621 63.668 339.486 59.1898 348.439 53.3594C371.671 38.2267 395.621 25.5469 417.693 16.6943C446.881 4.98823 473.47 -0.48118 496.725 0.438477C507.331 0.856943 517.771 2.85758 527.745 6.38867C557.632 16.9622 601.824 27.349 642.615 16.7705C660.736 12.0712 679.884 2.09287 692.604 -9.27148L692.881 -8.90137ZM690.981 -12.4004C677.11 -0.00510216 659.441 9.66936 641.234 14.8359C606.974 24.5479 566.124 20.0009 526.201 2.0127C516.748 -2.24835 506.321 -4.94029 495.208 -5.99414C445.932 -10.6599 384.368 14.7483 345.21 41.9971C336.616 47.98 325.769 52.6682 312.959 55.9248C262.594 68.7465 199.026 58.2464 188.307 51.7422L188.491 51.3359C199.173 57.8158 262.573 68.2682 312.841 55.4678C325.596 52.2161 336.415 47.5506 344.974 41.5967C365.257 27.4836 389.96 14.8995 414.543 6.16016C443.99 -4.30718 471.889 -8.669 495.217 -6.46094C506.374 -5.40421 516.843 -2.6986 526.34 1.58008C565.502 19.2254 605.559 23.9207 639.373 14.8604C639.953 14.7051 640.531 14.5452 641.108 14.3809C659.263 9.22828 676.875 -0.410989 690.705 -12.7705L690.981 -12.4004ZM689.083 -15.8936C677.097 -5.18493 663.902 3.13888 649.861 8.83398C636.572 14.2253 622.448 17.3113 607.885 17.9971C580.479 19.2928 551.739 12.0971 524.77 -2.80176C512.497 -9.58268 497.528 -13.401 480.28 -14.1533C464.791 -14.8301 447.778 -13.0436 429.718 -8.84375C397.936 -1.45546 364.228 13.521 341.757 30.2363C317.336 48.4013 275.566 51.3837 252.84 51.5479C221.417 51.7726 192.267 47.0447 184.757 42.4873L184.944 42.0752C192.403 46.6024 221.457 51.2983 252.812 51.0771C275.492 50.9158 317.174 47.9424 341.508 29.8398C364.019 13.0944 397.773 -1.90529 429.606 -9.30762C447.7 -13.5116 464.746 -15.3014 480.267 -14.623C497.576 -13.8676 512.605 -10.0314 524.935 -3.2168C551.838 11.6459 580.505 18.8223 607.838 17.5312C622.363 16.846 636.446 13.7705 649.696 8.39453C663.697 2.71015 676.857 -5.58486 688.808 -16.2646L689.083 -15.8936Z" fill="url(#paint2_linear_212_2750)"/>
<defs>
<linearGradient id="paint0_linear_212_2750" x1="220" y1="53" x2="220" y2="422" gradientUnits="userSpaceOnUse">
<stop stop-color="#02CE6D"/>
<stop offset="1" stop-color="#016736"/>
</linearGradient>
<linearGradient id="paint1_linear_212_2750" x1="-219.739" y1="319.967" x2="265.395" y2="449.959" gradientUnits="userSpaceOnUse">
<stop offset="0.0614" stop-color="#ABE1FF"/>
<stop offset="1" stop-color="#D7EDFD" stop-opacity="0"/>
</linearGradient>
<linearGradient id="paint2_linear_212_2750" x1="681.347" y1="-44.7723" x2="196.212" y2="85.2184" gradientUnits="userSpaceOnUse">
<stop offset="0.0614" stop-color="#ABE1FF"/>
<stop offset="1" stop-color="#D7EDFD" stop-opacity="0"/>
</linearGradient>
</defs>
</svg>
