<svg width="145" height="47" viewBox="0 0 145 47" fill="none" xmlns="http://www.w3.org/2000/svg">
<path d="M145 4H124C124.988 7.0662 128.723 7.97213 130.467 8.04181H140.889V17.1707C140.889 20.1812 143.63 22.9779 145 24V4Z" fill="#FF6601"/>
<path d="M27.2595 13.5604L22.496 33H17.7049L14.0703 18.9021L10.4082 33H5.64465L0.881116 13.5604H5.09395L8.06772 28.622L11.9226 13.5604H16.1905L20.0729 28.622L23.0467 13.5604H27.2595ZM33.798 16.6443V21.6832H40.6817V24.6569H33.798V29.8886H41.5078V33H29.9156V13.5604H41.5078V16.6443H33.798ZM48.2646 30.0262H54.7903V33H44.3821V13.5604H48.2646V30.0262ZM65.8845 13.3676C68.3076 13.3676 70.3176 13.9918 71.9147 15.24C73.5117 16.4882 74.5672 18.1862 75.0812 20.334H71.006C70.5838 19.2876 69.923 18.4616 69.0235 17.8558C68.1424 17.25 67.0777 16.9472 65.8295 16.9472C64.8015 16.9472 63.8745 17.2042 63.0484 17.7181C62.2224 18.2321 61.5799 18.9664 61.121 19.9209C60.6621 20.8755 60.4326 21.9952 60.4326 23.2802C60.4326 24.5468 60.6621 25.6574 61.121 26.6119C61.5799 27.5664 62.2224 28.3007 63.0484 28.8147C63.8745 29.3287 64.8015 29.5857 65.8295 29.5857C67.0777 29.5857 68.1424 29.2828 69.0235 28.677C69.923 28.0713 70.5838 27.2452 71.006 26.1989H75.0812C74.5672 28.3466 73.5117 30.0446 71.9147 31.2928C70.3176 32.5411 68.3076 33.1652 65.8845 33.1652C64.0305 33.1652 62.3876 32.7522 60.9558 31.9261C59.5423 31.0817 58.4409 29.9069 57.6516 28.4017C56.8806 26.8964 56.4951 25.1893 56.4951 23.2802C56.4951 21.3527 56.8806 19.6364 57.6516 18.1312C58.4409 16.6259 59.5423 15.4603 60.9558 14.6342C62.3692 13.7898 64.0121 13.3676 65.8845 13.3676ZM87.1081 13.285C88.9254 13.285 90.5683 13.7072 92.0368 14.5516C93.5237 15.396 94.6894 16.58 95.5338 18.1036C96.3965 19.6089 96.8279 21.316 96.8279 23.2251C96.8279 25.1342 96.3965 26.8505 95.5338 28.3741C94.6894 29.8977 93.5237 31.0817 92.0368 31.9261C90.5683 32.7705 88.9254 33.1927 87.1081 33.1927C85.2908 33.1927 83.6387 32.7705 82.1518 31.9261C80.6833 31.0817 79.5177 29.8977 78.6549 28.3741C77.8105 26.8505 77.3883 25.1342 77.3883 23.2251C77.3883 21.316 77.8105 19.6089 78.6549 18.1036C79.5177 16.58 80.6833 15.396 82.1518 14.5516C83.6387 13.7072 85.2908 13.285 87.1081 13.285ZM87.1081 16.8646C85.97 16.8646 84.9696 17.1215 84.1068 17.6355C83.244 18.1495 82.5649 18.893 82.0692 19.8659C81.592 20.8204 81.3533 21.9402 81.3533 23.2251C81.3533 24.5101 81.592 25.639 82.0692 26.6119C82.5649 27.5664 83.244 28.3007 84.1068 28.8147C84.9696 29.3287 85.97 29.5857 87.1081 29.5857C88.2462 29.5857 89.2466 29.3287 90.1094 28.8147C90.9722 28.3007 91.6422 27.5664 92.1195 26.6119C92.6151 25.639 92.8629 24.5101 92.8629 23.2251C92.8629 21.9402 92.6151 20.8204 92.1195 19.8659C91.6422 18.893 90.9722 18.1495 90.1094 17.6355C89.2466 17.1215 88.2462 16.8646 87.1081 16.8646ZM120.702 13.7807V33H116.847V19.5905L111.918 33H108.559L103.63 19.6456V33H99.7477V13.7807H104.456L110.294 28.2365L116.021 13.7807H120.702ZM128.1 16.6443V21.6832H134.983V24.6569H128.1V29.8886H135.809V33H124.217V13.5604H135.809V16.6443H128.1Z" fill="#036CAD"/>
</svg>
