<svg width="259" height="81" viewBox="0 0 259 81" fill="none" xmlns="http://www.w3.org/2000/svg">
<path d="M5.96454 40C5.02672 40 4.25771 39.8124 3.6575 39.4373C3.09481 39.0622 2.70092 38.5558 2.47585 37.918C2.28828 37.2428 2.28828 36.5113 2.47585 35.7235C2.70092 34.8983 3.13232 34.0542 3.77004 33.1914L25.2649 4.04396V6.351H5.40185C4.35149 6.351 3.54496 6.08841 2.98227 5.56323C2.45709 5.03805 2.1945 4.28779 2.1945 3.31246C2.1945 2.33712 2.45709 1.60562 2.98227 1.11796C3.54496 0.592778 4.35149 0.330188 5.40185 0.330188H28.6973C29.6351 0.330188 30.3854 0.517752 30.9481 0.89288C31.5483 1.26801 31.9422 1.77443 32.1297 2.41215C32.3548 3.04987 32.3548 3.78137 32.1297 4.60665C31.9422 5.43193 31.5295 6.27597 30.8918 7.13876L9.39696 36.23V33.9792H30.104C31.1544 33.9792 31.9422 34.2418 32.4673 34.767C33.03 35.2546 33.3114 35.9861 33.3114 36.9615C33.3114 37.9368 33.03 38.6871 32.4673 39.2122C31.9422 39.7374 31.1544 40 30.104 40H5.96454ZM50.4634 40.5627C47.3498 40.5627 44.6677 39.9812 42.4169 38.8183C40.1661 37.6554 38.4218 36.0049 37.1839 33.8667C35.9834 31.7284 35.3832 29.1963 35.3832 26.2703C35.3832 23.4193 35.9647 20.9247 37.1276 18.7865C38.328 16.6483 39.9598 14.9789 42.023 13.7785C44.1237 12.5406 46.5058 11.9217 49.1692 11.9217C51.1199 11.9217 52.8642 12.2405 54.4022 12.8782C55.9778 13.5159 57.3095 14.435 58.3974 15.6354C59.5227 16.8358 60.3668 18.2988 60.9295 20.0244C61.5297 21.7125 61.8298 23.6257 61.8298 25.7639C61.8298 26.4391 61.5859 26.9643 61.0983 27.3394C60.6481 27.677 59.9916 27.8458 59.1289 27.8458H41.0664V23.7945H56.8781L55.9778 24.6385C55.9778 22.9129 55.7152 21.4687 55.19 20.3058C54.7023 19.1429 53.9708 18.2613 52.9955 17.6611C52.0577 17.0234 50.876 16.7045 49.4505 16.7045C47.875 16.7045 46.5245 17.0797 45.3992 17.8299C44.3113 18.5427 43.4673 19.5743 42.867 20.9247C42.3044 22.2377 42.023 23.8132 42.023 25.6513V26.0452C42.023 29.1213 42.7358 31.4283 44.1612 32.9663C45.6242 34.4669 47.7625 35.2171 50.5759 35.2171C51.5513 35.2171 52.6391 35.1046 53.8395 34.8795C55.0775 34.6169 56.2404 34.1855 57.3282 33.5853C58.116 33.1352 58.81 32.9476 59.4102 33.0226C60.0104 33.0601 60.4793 33.2664 60.8169 33.6416C61.1921 34.0167 61.4171 34.4856 61.4922 35.0483C61.5672 35.5735 61.4546 36.1174 61.1545 36.6801C60.892 37.2428 60.423 37.7305 59.7478 38.1431C58.4349 38.9684 56.9156 39.5874 55.19 40C53.5019 40.3751 51.9264 40.5627 50.4634 40.5627ZM71.0012 40.4502C69.8383 40.4502 68.938 40.1501 68.3003 39.5498C67.7001 38.9121 67.4 38.0118 67.4 36.8489V15.5792C67.4 14.4163 67.7001 13.5347 68.3003 12.9345C68.9005 12.3343 69.7445 12.0342 70.8324 12.0342C71.9203 12.0342 72.7643 12.3343 73.3645 12.9345C73.9647 13.5347 74.2648 14.4163 74.2648 15.5792V19.1241H73.7021C74.2273 16.8733 75.2589 15.1665 76.797 14.0036C78.335 12.8407 80.3794 12.1467 82.9303 11.9217C83.7181 11.8466 84.337 12.0529 84.7872 12.5406C85.2749 12.9908 85.5562 13.7035 85.6312 14.6788C85.7063 15.6167 85.4812 16.3857 84.956 16.9859C84.4683 17.5486 83.7181 17.8862 82.7052 17.9987L81.4673 18.1113C79.179 18.3363 77.4534 19.0491 76.2905 20.2495C75.1276 21.4124 74.5462 23.063 74.5462 25.2012V36.8489C74.5462 38.0118 74.2461 38.9121 73.6459 39.5498C73.0457 40.1501 72.1641 40.4502 71.0012 40.4502ZM101.544 40.5627C98.6926 40.5627 96.2167 39.9812 94.116 38.8183C92.0153 37.6554 90.3835 36.0049 89.2206 33.8667C88.0577 31.6909 87.4762 29.14 87.4762 26.214C87.4762 24.0008 87.7951 22.0314 88.4328 20.3058C89.108 18.5427 90.0646 17.0422 91.3025 15.8042C92.5405 14.5288 94.0222 13.5722 95.7478 12.9345C97.4734 12.2593 99.4053 11.9217 101.544 11.9217C104.395 11.9217 106.87 12.5031 108.971 13.666C111.072 14.8289 112.704 16.4795 113.867 18.6177C115.029 20.7559 115.611 23.288 115.611 26.214C115.611 28.4273 115.273 30.4155 114.598 32.1786C113.96 33.9417 113.022 35.4609 111.785 36.7364C110.547 37.9743 109.065 38.9309 107.339 39.6061C105.614 40.2438 103.682 40.5627 101.544 40.5627ZM101.544 35.2171C102.932 35.2171 104.151 34.8795 105.201 34.2043C106.251 33.529 107.058 32.5349 107.621 31.222C108.221 29.8715 108.521 28.2022 108.521 26.214C108.521 23.213 107.883 20.981 106.608 19.518C105.332 18.0175 103.644 17.2672 101.544 17.2672C100.156 17.2672 98.9364 17.6048 97.886 18.2801C96.8357 18.9178 96.0104 19.9119 95.4102 21.2623C94.8475 22.5753 94.5662 24.2259 94.5662 26.214C94.5662 29.1776 95.2039 31.4283 96.4793 32.9663C97.7547 34.4669 99.4428 35.2171 101.544 35.2171ZM131.488 40.5627C129.875 40.5627 128.169 40.3939 126.368 40.0563C124.567 39.7187 122.954 39.1372 121.529 38.3119C120.929 37.9368 120.497 37.5054 120.235 37.0177C120.01 36.4926 119.916 35.9861 119.953 35.4985C120.028 34.9733 120.216 34.5231 120.516 34.148C120.854 33.7729 121.266 33.529 121.754 33.4165C122.279 33.304 122.842 33.3977 123.442 33.6978C124.942 34.4106 126.349 34.917 127.662 35.2171C128.975 35.4797 130.269 35.611 131.545 35.611C133.345 35.611 134.677 35.3109 135.54 34.7107C136.44 34.073 136.89 33.2477 136.89 32.2348C136.89 31.3721 136.59 30.7156 135.99 30.2654C135.427 29.7778 134.565 29.4214 133.402 29.1963L127.775 28.1272C125.449 27.677 123.667 26.833 122.429 25.5951C121.229 24.3196 120.628 22.6878 120.628 20.6997C120.628 18.899 121.116 17.3423 122.091 16.0293C123.104 14.7164 124.492 13.7035 126.255 12.9908C128.019 12.278 130.044 11.9217 132.332 11.9217C133.983 11.9217 135.521 12.1092 136.947 12.4843C138.41 12.822 139.816 13.3659 141.167 14.1162C141.729 14.4163 142.105 14.8101 142.292 15.2978C142.517 15.7855 142.573 16.2919 142.461 16.8171C142.348 17.3047 142.123 17.7549 141.786 18.1675C141.448 18.5427 141.017 18.7865 140.492 18.899C140.004 18.9741 139.441 18.8615 138.803 18.5614C137.641 17.9612 136.515 17.5298 135.427 17.2672C134.377 17.0046 133.364 16.8733 132.389 16.8733C130.551 16.8733 129.181 17.1922 128.281 17.8299C127.418 18.4676 126.987 19.3117 126.987 20.362C126.987 21.1498 127.25 21.8063 127.775 22.3315C128.3 22.8566 129.106 23.213 130.194 23.4006L135.821 24.4697C138.26 24.9198 140.098 25.7451 141.336 26.9455C142.611 28.1459 143.249 29.759 143.249 31.7847C143.249 34.5231 142.18 36.6801 140.041 38.2557C137.903 39.7937 135.052 40.5627 131.488 40.5627ZM152.38 40.4502C151.255 40.4502 150.392 40.1501 149.792 39.5498C149.192 38.9121 148.891 38.0118 148.891 36.8489V15.5792C148.891 14.4163 149.192 13.5347 149.792 12.9345C150.392 12.3343 151.236 12.0342 152.324 12.0342C153.412 12.0342 154.256 12.3343 154.856 12.9345C155.456 13.5347 155.756 14.4163 155.756 15.5792V19.4055L155.137 17.9987C155.963 16.0105 157.238 14.51 158.964 13.4972C160.727 12.4468 162.715 11.9217 164.928 11.9217C167.141 11.9217 168.961 12.3343 170.386 13.1596C171.812 13.9849 172.881 15.2415 173.594 16.9296C174.306 18.5802 174.663 20.6809 174.663 23.2318V36.8489C174.663 38.0118 174.363 38.9121 173.762 39.5498C173.162 40.1501 172.299 40.4502 171.174 40.4502C170.049 40.4502 169.167 40.1501 168.529 39.5498C167.929 38.9121 167.629 38.0118 167.629 36.8489V23.5694C167.629 21.4312 167.216 19.8744 166.391 18.899C165.603 17.9237 164.366 17.436 162.677 17.436C160.614 17.436 158.964 18.0925 157.726 19.4055C156.525 20.6809 155.925 22.3877 155.925 24.526V36.8489C155.925 39.2497 154.743 40.4502 152.38 40.4502ZM190.866 40.5627C188.878 40.5627 187.096 40.1876 185.521 39.4373C183.983 38.6495 182.763 37.5992 181.863 36.2862C181 34.9733 180.569 33.4915 180.569 31.841C180.569 29.8153 181.094 28.221 182.144 27.0581C183.195 25.8577 184.902 24.9949 187.265 24.4697C189.628 23.9445 192.798 23.6819 196.774 23.6819H199.588V27.7333H196.831C194.505 27.7333 192.648 27.8458 191.26 28.0709C189.872 28.296 188.878 28.6899 188.278 29.2526C187.715 29.7778 187.434 30.528 187.434 31.5033C187.434 32.7413 187.865 33.7541 188.728 34.5419C189.591 35.3297 190.791 35.7235 192.329 35.7235C193.567 35.7235 194.655 35.4422 195.593 34.8795C196.568 34.2793 197.337 33.4728 197.9 32.4599C198.462 31.4471 198.744 30.2842 198.744 28.9712V22.5003C198.744 20.6246 198.331 19.2742 197.506 18.4489C196.681 17.6236 195.293 17.211 193.342 17.211C192.254 17.211 191.072 17.3423 189.797 17.6048C188.559 17.8674 187.246 18.3176 185.858 18.9553C185.145 19.2929 184.508 19.3867 183.945 19.2367C183.42 19.0866 183.007 18.7865 182.707 18.3363C182.407 17.8487 182.257 17.3235 182.257 16.7608C182.257 16.1981 182.407 15.6542 182.707 15.129C183.007 14.5663 183.514 14.1537 184.226 13.8911C185.952 13.1783 187.603 12.6719 189.178 12.3718C190.791 12.0717 192.254 11.9217 193.567 11.9217C196.268 11.9217 198.481 12.3343 200.207 13.1596C201.97 13.9849 203.283 15.2415 204.146 16.9296C205.008 18.5802 205.44 20.7184 205.44 23.3443V36.8489C205.44 38.0118 205.159 38.9121 204.596 39.5498C204.033 40.1501 203.227 40.4502 202.176 40.4502C201.126 40.4502 200.301 40.1501 199.7 39.5498C199.138 38.9121 198.856 38.0118 198.856 36.8489V34.148H199.307C199.044 35.4609 198.519 36.6051 197.731 37.5804C196.981 38.5182 196.024 39.2497 194.861 39.7749C193.698 40.3001 192.367 40.5627 190.866 40.5627ZM216.068 50.5786C214.942 50.5786 214.08 50.2785 213.479 49.6783C212.879 49.0781 212.579 48.1966 212.579 47.0337V15.5792C212.579 14.4163 212.879 13.5347 213.479 12.9345C214.08 12.3343 214.924 12.0342 216.011 12.0342C217.137 12.0342 218 12.3343 218.6 12.9345C219.2 13.5347 219.5 14.4163 219.5 15.5792V19.9682L218.881 18.2801C219.444 16.3669 220.588 14.8289 222.314 13.666C224.077 12.5031 226.121 11.9217 228.447 11.9217C230.848 11.9217 232.948 12.5031 234.749 13.666C236.587 14.8289 238.013 16.4795 239.026 18.6177C240.038 20.7184 240.545 23.2505 240.545 26.214C240.545 29.14 240.038 31.6909 239.026 33.8667C238.013 36.0049 236.606 37.6554 234.805 38.8183C233.005 39.9812 230.885 40.5627 228.447 40.5627C226.159 40.5627 224.152 40 222.426 38.8746C220.701 37.7117 219.538 36.2112 218.937 34.3731H219.613V47.0337C219.613 48.1966 219.294 49.0781 218.656 49.6783C218.056 50.2785 217.193 50.5786 216.068 50.5786ZM226.478 35.2171C227.865 35.2171 229.085 34.8795 230.135 34.2043C231.185 33.529 231.992 32.5349 232.555 31.222C233.155 29.8715 233.455 28.2022 233.455 26.214C233.455 23.213 232.817 20.981 231.542 19.518C230.266 18.0175 228.578 17.2672 226.478 17.2672C225.09 17.2672 223.87 17.6048 222.82 18.2801C221.77 18.9178 220.944 19.9119 220.344 21.2623C219.781 22.5753 219.5 24.2259 219.5 26.214C219.5 29.1776 220.138 31.4283 221.413 32.9663C222.689 34.4669 224.377 35.2171 226.478 35.2171ZM170.28 57.65C169.147 57.65 168.58 57.1 168.58 56C168.58 54.9 169.113 54.35 170.18 54.35C171.313 54.35 171.88 54.9 171.88 56C171.88 57.1 171.347 57.65 170.28 57.65ZM163.48 77C162.513 77 162.03 76.5167 162.03 75.55C162.03 74.95 162.23 74.1333 162.63 73.1C163.497 70.9667 164.313 69 165.08 67.2C165.847 65.4 166.563 63.7667 167.23 62.3C167.33 62.1333 167.38 61.95 167.38 61.75C167.38 61.2833 167.163 60.7833 166.73 60.25L169.48 60.2C170.413 60.2 170.88 60.4333 170.88 60.9C170.88 61.0333 170.847 61.1833 170.78 61.35C170.713 61.4833 170.63 61.6833 170.53 61.95L165.93 72.6C165.463 73.7 165.23 74.6333 165.23 75.4C165.23 76.2 165.48 76.7333 165.98 77H163.48ZM169.824 77.35C170.49 75.7167 171.324 73.7 172.324 71.3C173.324 68.9 174.54 66.1333 175.974 63C176.274 62.3333 176.557 61.7833 176.824 61.35C177.09 60.9167 177.34 60.5833 177.574 60.35C178.04 59.8833 178.64 59.65 179.374 59.65C179.44 59.65 179.557 59.65 179.724 59.65C179.89 59.65 180.124 59.6833 180.424 59.75C180.89 59.7833 181.24 59.7833 181.474 59.75C180.24 60.4833 178.39 63.7167 175.924 69.45C176.324 68.8833 176.857 68.2667 177.524 67.6C178.224 66.9 179.04 66.1333 179.974 65.3C180.574 64.7333 181.24 64.2 181.974 63.7C182.707 63.1667 183.507 62.6667 184.374 62.2C186.34 61.1 187.79 60.55 188.724 60.55C188.957 60.55 189.124 60.5667 189.224 60.6C188.69 61.5333 188.19 62.4333 187.724 63.3C187.29 64.1667 186.874 64.9833 186.474 65.75C184.54 69.4833 183.457 72.0667 183.224 73.5C183.19 73.7333 183.157 73.95 183.124 74.15C183.124 74.35 183.124 74.5333 183.124 74.7C183.124 75.5667 183.44 76 184.074 76C185.107 76 186.34 74.95 187.774 72.85L188.474 73.35C186.774 75.9167 185.057 77.2 183.324 77.2C181.224 77.2 180.174 76.1167 180.174 73.95C180.174 72.1833 181.257 69.5667 183.424 66.1C183.757 65.5667 183.924 65.1167 183.924 64.75C183.924 64.35 183.74 64.15 183.374 64.15C183.007 64.15 182.524 64.35 181.924 64.75C181.357 65.1167 180.674 65.6667 179.874 66.4C178.607 67.5667 177.424 68.9667 176.324 70.6C175.224 72.2 174.224 74.0333 173.324 76.1C173.124 76.6 172.607 76.9 171.774 77C170.707 77.1 170.057 77.2167 169.824 77.35ZM193.67 77.35C191.437 77.35 190.32 75.9667 190.32 73.2C190.32 71.6333 190.67 69.9833 191.37 68.25C191.904 66.95 192.437 65.6833 192.97 64.45C193.537 63.2167 194.087 62.0333 194.62 60.9C194.987 60.2 195.637 59.85 196.57 59.85H199.62C199.02 60.2833 198.454 60.85 197.92 61.55C197.387 62.25 196.887 63.0833 196.42 64.05C194.254 68.45 193.17 71.6 193.17 73.5C193.17 74.9667 193.754 75.7 194.92 75.7C196.92 75.7 199.02 72.95 201.22 67.45C200.787 66.55 200.57 65.4833 200.57 64.25C200.57 63.65 200.654 63.05 200.82 62.45C201.187 61.2167 201.737 60.2833 202.47 59.65C203.137 59.05 203.754 58.75 204.32 58.75C204.92 58.75 205.22 59.0167 205.22 59.55L204.97 60.45C204.237 62.7167 203.537 64.7167 202.87 66.45C202.237 68.15 201.62 69.5833 201.02 70.75C198.72 75.15 196.27 77.35 193.67 77.35ZM208.222 77C205.789 77 204.572 75.5167 204.572 72.55C204.572 71.0833 204.922 69.5333 205.622 67.9C206.622 65.5333 208.039 63.5333 209.872 61.9C211.672 60.3 213.372 59.5 214.972 59.5C217.439 59.5 218.672 60.95 218.672 63.85C218.672 65.35 218.306 66.9333 217.572 68.6C216.706 70.6 215.456 72.4167 213.822 74.05C211.789 76.0167 209.922 77 208.222 77ZM209.022 75.9C209.789 75.9 210.606 75.5833 211.472 74.95C212.572 74.15 213.822 72.4833 215.222 69.95C216.756 67.2167 217.522 65.0167 217.522 63.35C217.522 61.85 216.889 61.1 215.622 61.1C214.622 61.1 213.489 61.7333 212.222 63C210.989 64.2333 209.939 65.8 209.072 67.7C207.906 70.2 207.322 72.2 207.322 73.7C207.322 75.1667 207.889 75.9 209.022 75.9ZM226.725 57.65C225.592 57.65 225.025 57.1 225.025 56C225.025 54.9 225.559 54.35 226.625 54.35C227.759 54.35 228.325 54.9 228.325 56C228.325 57.1 227.792 57.65 226.725 57.65ZM219.925 77C218.959 77 218.475 76.5167 218.475 75.55C218.475 74.95 218.675 74.1333 219.075 73.1C219.942 70.9667 220.759 69 221.525 67.2C222.292 65.4 223.009 63.7667 223.675 62.3C223.775 62.1333 223.825 61.95 223.825 61.75C223.825 61.2833 223.609 60.7833 223.175 60.25L225.925 60.2C226.859 60.2 227.325 60.4333 227.325 60.9C227.325 61.0333 227.292 61.1833 227.225 61.35C227.159 61.4833 227.075 61.6833 226.975 61.95L222.375 72.6C221.909 73.7 221.675 74.6333 221.675 75.4C221.675 76.2 221.925 76.7333 222.425 77H219.925ZM232.619 77.2C229.286 77.2 227.619 75.5333 227.619 72.2C227.619 69.4 228.586 66.6333 230.519 63.9C232.619 60.9 235.036 59.4 237.769 59.4C240.302 59.4 241.436 60.55 241.169 62.85C241.136 63.45 240.819 64.1 240.219 64.8C239.652 65.4667 239.102 65.8 238.569 65.8C238.269 65.8 238.019 65.7 237.819 65.5C238.652 64.6667 239.169 63.8167 239.369 62.95C239.436 62.7167 239.486 62.5167 239.519 62.35C239.552 62.15 239.569 61.9667 239.569 61.8C239.569 60.9333 239.169 60.5 238.369 60.5C237.202 60.5 235.569 61.9167 233.469 64.75C231.469 67.45 230.469 70.0833 230.469 72.65C230.469 75.0833 231.402 76.3 233.269 76.3C235.069 76.3 236.819 75.1667 238.519 72.9L238.819 72.5L239.519 72.9L239.169 73.4C237.402 75.9333 235.219 77.2 232.619 77.2ZM245.496 77.2C244.196 77.2 243.079 76.7833 242.146 75.95C241.646 75.4833 241.279 74.95 241.046 74.35C240.846 73.7167 240.746 73 240.746 72.2C240.746 69.1333 242.012 66.0833 244.546 63.05C246.679 60.4833 248.896 59.2 251.196 59.2C251.962 59.2 252.612 59.4 253.146 59.8C253.712 60.2667 253.996 60.8667 253.996 61.6C253.996 63.4333 252.779 65.2667 250.346 67.1C249.579 67.6667 248.562 68.1667 247.296 68.6C245.896 69.0667 244.879 69.3 244.246 69.3C243.779 70.4333 243.546 71.6333 243.546 72.9C243.546 75.0667 244.346 76.15 245.946 76.15C248.046 76.15 250.012 74.7833 251.846 72.05L252.046 71.75L252.896 72.1L252.746 72.4C251.912 74.0667 250.862 75.2833 249.596 76.05C248.329 76.8167 246.962 77.2 245.496 77.2ZM244.546 68.45C245.112 68.45 245.896 68.2667 246.896 67.9C247.462 67.6667 247.996 67.4167 248.496 67.15C249.029 66.8833 249.496 66.5833 249.896 66.25C251.729 64.7167 252.646 63.1 252.646 61.4C252.646 60.6667 252.379 60.3 251.846 60.3C250.912 60.3 249.496 61.45 247.596 63.75C246.629 64.9167 245.612 66.4833 244.546 68.45Z" fill="white"/>
<path d="M259 1H216C218.024 7.28571 225.671 9.14286 229.242 9.28572H250.581V28C250.581 34.1714 256.194 39.9048 259 42V1Z" fill="#BD9C36"/>
</svg>
