<svg width="307" height="97" viewBox="0 0 307 97" fill="none" xmlns="http://www.w3.org/2000/svg">
<path d="M5.96454 44C5.02672 44 4.25771 43.8124 3.6575 43.4373C3.09481 43.0622 2.70092 42.5558 2.47585 41.918C2.28828 41.2428 2.28828 40.5113 2.47585 39.7235C2.70092 38.8983 3.13232 38.0542 3.77004 37.1914L25.2649 8.04396V10.351H5.40185C4.35149 10.351 3.54496 10.0884 2.98227 9.56323C2.45709 9.03805 2.1945 8.28779 2.1945 7.31246C2.1945 6.33712 2.45709 5.60562 2.98227 5.11796C3.54496 4.59278 4.35149 4.33019 5.40185 4.33019H28.6973C29.6351 4.33019 30.3854 4.51775 30.9481 4.89288C31.5483 5.26801 31.9422 5.77443 32.1297 6.41215C32.3548 7.04987 32.3548 7.78137 32.1297 8.60665C31.9422 9.43193 31.5295 10.276 30.8918 11.1388L9.39696 40.23V37.9792H30.104C31.1544 37.9792 31.9422 38.2418 32.4673 38.767C33.03 39.2546 33.3114 39.9861 33.3114 40.9615C33.3114 41.9368 33.03 42.6871 32.4673 43.2122C31.9422 43.7374 31.1544 44 30.104 44H5.96454ZM50.4634 44.5627C47.3498 44.5627 44.6677 43.9812 42.4169 42.8183C40.1661 41.6554 38.4218 40.0049 37.1839 37.8667C35.9834 35.7284 35.3832 33.1963 35.3832 30.2703C35.3832 27.4193 35.9647 24.9247 37.1276 22.7865C38.328 20.6483 39.9598 18.9789 42.023 17.7785C44.1237 16.5406 46.5058 15.9217 49.1692 15.9217C51.1199 15.9217 52.8642 16.2405 54.4022 16.8782C55.9778 17.5159 57.3095 18.435 58.3974 19.6354C59.5227 20.8358 60.3668 22.2988 60.9295 24.0244C61.5297 25.7125 61.8298 27.6257 61.8298 29.7639C61.8298 30.4391 61.5859 30.9643 61.0983 31.3394C60.6481 31.677 59.9916 31.8458 59.1289 31.8458H41.0664V27.7945H56.8781L55.9778 28.6385C55.9778 26.9129 55.7152 25.4687 55.19 24.3058C54.7023 23.1429 53.9708 22.2613 52.9955 21.6611C52.0577 21.0234 50.876 20.7045 49.4505 20.7045C47.875 20.7045 46.5245 21.0797 45.3992 21.8299C44.3113 22.5427 43.4673 23.5743 42.867 24.9247C42.3044 26.2377 42.023 27.8132 42.023 29.6513V30.0452C42.023 33.1213 42.7358 35.4283 44.1612 36.9663C45.6242 38.4669 47.7625 39.2171 50.5759 39.2171C51.5513 39.2171 52.6391 39.1046 53.8395 38.8795C55.0775 38.6169 56.2404 38.1855 57.3282 37.5853C58.116 37.1352 58.81 36.9476 59.4102 37.0226C60.0104 37.0601 60.4793 37.2664 60.8169 37.6416C61.1921 38.0167 61.4171 38.4856 61.4922 39.0483C61.5672 39.5735 61.4546 40.1174 61.1545 40.6801C60.892 41.2428 60.423 41.7305 59.7478 42.1431C58.4349 42.9684 56.9156 43.5874 55.19 44C53.5019 44.3751 51.9264 44.5627 50.4634 44.5627ZM71.0012 44.4502C69.8383 44.4502 68.938 44.1501 68.3003 43.5498C67.7001 42.9121 67.4 42.0118 67.4 40.8489V19.5792C67.4 18.4163 67.7001 17.5347 68.3003 16.9345C68.9005 16.3343 69.7445 16.0342 70.8324 16.0342C71.9203 16.0342 72.7643 16.3343 73.3645 16.9345C73.9647 17.5347 74.2648 18.4163 74.2648 19.5792V23.1241H73.7021C74.2273 20.8733 75.2589 19.1665 76.797 18.0036C78.335 16.8407 80.3794 16.1467 82.9303 15.9217C83.7181 15.8466 84.337 16.0529 84.7872 16.5406C85.2749 16.9908 85.5562 17.7035 85.6312 18.6788C85.7063 19.6167 85.4812 20.3857 84.956 20.9859C84.4683 21.5486 83.7181 21.8862 82.7052 21.9987L81.4673 22.1113C79.179 22.3363 77.4534 23.0491 76.2905 24.2495C75.1276 25.4124 74.5462 27.063 74.5462 29.2012V40.8489C74.5462 42.0118 74.2461 42.9121 73.6459 43.5498C73.0457 44.1501 72.1641 44.4502 71.0012 44.4502ZM101.544 44.5627C98.6926 44.5627 96.2167 43.9812 94.116 42.8183C92.0153 41.6554 90.3835 40.0049 89.2206 37.8667C88.0577 35.6909 87.4762 33.14 87.4762 30.214C87.4762 28.0008 87.7951 26.0314 88.4328 24.3058C89.108 22.5427 90.0646 21.0422 91.3025 19.8042C92.5405 18.5288 94.0222 17.5722 95.7478 16.9345C97.4734 16.2593 99.4053 15.9217 101.544 15.9217C104.395 15.9217 106.87 16.5031 108.971 17.666C111.072 18.8289 112.704 20.4795 113.867 22.6177C115.029 24.7559 115.611 27.288 115.611 30.214C115.611 32.4273 115.273 34.4155 114.598 36.1786C113.96 37.9417 113.022 39.4609 111.785 40.7364C110.547 41.9743 109.065 42.9309 107.339 43.6061C105.614 44.2438 103.682 44.5627 101.544 44.5627ZM101.544 39.2171C102.932 39.2171 104.151 38.8795 105.201 38.2043C106.251 37.529 107.058 36.5349 107.621 35.222C108.221 33.8715 108.521 32.2022 108.521 30.214C108.521 27.213 107.883 24.981 106.608 23.518C105.332 22.0175 103.644 21.2672 101.544 21.2672C100.156 21.2672 98.9364 21.6048 97.886 22.2801C96.8357 22.9178 96.0104 23.9119 95.4102 25.2623C94.8475 26.5753 94.5662 28.2259 94.5662 30.214C94.5662 33.1776 95.2039 35.4283 96.4793 36.9663C97.7547 38.4669 99.4428 39.2171 101.544 39.2171ZM131.488 44.5627C129.875 44.5627 128.169 44.3939 126.368 44.0563C124.567 43.7187 122.954 43.1372 121.529 42.3119C120.929 41.9368 120.497 41.5054 120.235 41.0177C120.01 40.4926 119.916 39.9861 119.953 39.4985C120.028 38.9733 120.216 38.5231 120.516 38.148C120.854 37.7729 121.266 37.529 121.754 37.4165C122.279 37.304 122.842 37.3977 123.442 37.6978C124.942 38.4106 126.349 38.917 127.662 39.2171C128.975 39.4797 130.269 39.611 131.545 39.611C133.345 39.611 134.677 39.3109 135.54 38.7107C136.44 38.073 136.89 37.2477 136.89 36.2348C136.89 35.3721 136.59 34.7156 135.99 34.2654C135.427 33.7778 134.565 33.4214 133.402 33.1963L127.775 32.1272C125.449 31.677 123.667 30.833 122.429 29.5951C121.229 28.3196 120.628 26.6878 120.628 24.6997C120.628 22.899 121.116 21.3423 122.091 20.0293C123.104 18.7164 124.492 17.7035 126.255 16.9908C128.019 16.278 130.044 15.9217 132.332 15.9217C133.983 15.9217 135.521 16.1092 136.947 16.4843C138.41 16.822 139.816 17.3659 141.167 18.1162C141.729 18.4163 142.105 18.8101 142.292 19.2978C142.517 19.7855 142.573 20.2919 142.461 20.8171C142.348 21.3047 142.123 21.7549 141.786 22.1675C141.448 22.5427 141.017 22.7865 140.492 22.899C140.004 22.9741 139.441 22.8615 138.803 22.5614C137.641 21.9612 136.515 21.5298 135.427 21.2672C134.377 21.0046 133.364 20.8733 132.389 20.8733C130.551 20.8733 129.181 21.1922 128.281 21.8299C127.418 22.4676 126.987 23.3117 126.987 24.362C126.987 25.1498 127.25 25.8063 127.775 26.3315C128.3 26.8566 129.106 27.213 130.194 27.4006L135.821 28.4697C138.26 28.9198 140.098 29.7451 141.336 30.9455C142.611 32.1459 143.249 33.759 143.249 35.7847C143.249 38.5231 142.18 40.6801 140.041 42.2557C137.903 43.7937 135.052 44.5627 131.488 44.5627ZM152.38 44.4502C151.255 44.4502 150.392 44.1501 149.792 43.5498C149.192 42.9121 148.891 42.0118 148.891 40.8489V19.5792C148.891 18.4163 149.192 17.5347 149.792 16.9345C150.392 16.3343 151.236 16.0342 152.324 16.0342C153.412 16.0342 154.256 16.3343 154.856 16.9345C155.456 17.5347 155.756 18.4163 155.756 19.5792V23.4055L155.137 21.9987C155.963 20.0105 157.238 18.51 158.964 17.4972C160.727 16.4468 162.715 15.9217 164.928 15.9217C167.141 15.9217 168.961 16.3343 170.386 17.1596C171.812 17.9849 172.881 19.2415 173.594 20.9296C174.306 22.5802 174.663 24.6809 174.663 27.2318V40.8489C174.663 42.0118 174.363 42.9121 173.762 43.5498C173.162 44.1501 172.299 44.4502 171.174 44.4502C170.049 44.4502 169.167 44.1501 168.529 43.5498C167.929 42.9121 167.629 42.0118 167.629 40.8489V27.5694C167.629 25.4312 167.216 23.8744 166.391 22.899C165.603 21.9237 164.366 21.436 162.677 21.436C160.614 21.436 158.964 22.0925 157.726 23.4055C156.525 24.6809 155.925 26.3877 155.925 28.526V40.8489C155.925 43.2497 154.743 44.4502 152.38 44.4502ZM190.866 44.5627C188.878 44.5627 187.096 44.1876 185.521 43.4373C183.983 42.6495 182.763 41.5992 181.863 40.2862C181 38.9733 180.569 37.4915 180.569 35.841C180.569 33.8153 181.094 32.221 182.144 31.0581C183.195 29.8577 184.902 28.9949 187.265 28.4697C189.628 27.9445 192.798 27.6819 196.774 27.6819H199.588V31.7333H196.831C194.505 31.7333 192.648 31.8458 191.26 32.0709C189.872 32.296 188.878 32.6899 188.278 33.2526C187.715 33.7778 187.434 34.528 187.434 35.5033C187.434 36.7413 187.865 37.7541 188.728 38.5419C189.591 39.3297 190.791 39.7235 192.329 39.7235C193.567 39.7235 194.655 39.4422 195.593 38.8795C196.568 38.2793 197.337 37.4728 197.9 36.4599C198.462 35.4471 198.744 34.2842 198.744 32.9712V26.5003C198.744 24.6246 198.331 23.2742 197.506 22.4489C196.681 21.6236 195.293 21.211 193.342 21.211C192.254 21.211 191.072 21.3423 189.797 21.6048C188.559 21.8674 187.246 22.3176 185.858 22.9553C185.145 23.2929 184.508 23.3867 183.945 23.2367C183.42 23.0866 183.007 22.7865 182.707 22.3363C182.407 21.8487 182.257 21.3235 182.257 20.7608C182.257 20.1981 182.407 19.6542 182.707 19.129C183.007 18.5663 183.514 18.1537 184.226 17.8911C185.952 17.1783 187.603 16.6719 189.178 16.3718C190.791 16.0717 192.254 15.9217 193.567 15.9217C196.268 15.9217 198.481 16.3343 200.207 17.1596C201.97 17.9849 203.283 19.2415 204.146 20.9296C205.008 22.5802 205.44 24.7184 205.44 27.3443V40.8489C205.44 42.0118 205.159 42.9121 204.596 43.5498C204.033 44.1501 203.227 44.4502 202.176 44.4502C201.126 44.4502 200.301 44.1501 199.7 43.5498C199.138 42.9121 198.856 42.0118 198.856 40.8489V38.148H199.307C199.044 39.4609 198.519 40.6051 197.731 41.5804C196.981 42.5182 196.024 43.2497 194.861 43.7749C193.698 44.3001 192.367 44.5627 190.866 44.5627ZM216.068 54.5786C214.942 54.5786 214.08 54.2785 213.479 53.6783C212.879 53.0781 212.579 52.1966 212.579 51.0337V19.5792C212.579 18.4163 212.879 17.5347 213.479 16.9345C214.08 16.3343 214.924 16.0342 216.011 16.0342C217.137 16.0342 218 16.3343 218.6 16.9345C219.2 17.5347 219.5 18.4163 219.5 19.5792V23.9682L218.881 22.2801C219.444 20.3669 220.588 18.8289 222.314 17.666C224.077 16.5031 226.121 15.9217 228.447 15.9217C230.848 15.9217 232.948 16.5031 234.749 17.666C236.587 18.8289 238.013 20.4795 239.026 22.6177C240.038 24.7184 240.545 27.2505 240.545 30.214C240.545 33.14 240.038 35.6909 239.026 37.8667C238.013 40.0049 236.606 41.6554 234.805 42.8183C233.005 43.9812 230.885 44.5627 228.447 44.5627C226.159 44.5627 224.152 44 222.426 42.8746C220.701 41.7117 219.538 40.2112 218.937 38.3731H219.613V51.0337C219.613 52.1966 219.294 53.0781 218.656 53.6783C218.056 54.2785 217.193 54.5786 216.068 54.5786ZM226.478 39.2171C227.865 39.2171 229.085 38.8795 230.135 38.2043C231.185 37.529 231.992 36.5349 232.555 35.222C233.155 33.8715 233.455 32.2022 233.455 30.214C233.455 27.213 232.817 24.981 231.542 23.518C230.266 22.0175 228.578 21.2672 226.478 21.2672C225.09 21.2672 223.87 21.6048 222.82 22.2801C221.77 22.9178 220.944 23.9119 220.344 25.2623C219.781 26.5753 219.5 28.2259 219.5 30.214C219.5 33.1776 220.138 35.4283 221.413 36.9663C222.689 38.4669 224.377 39.2171 226.478 39.2171ZM175.618 60.8338C173.851 60.8338 172.968 59.9764 172.968 58.2615C172.968 56.5467 173.799 55.6892 175.462 55.6892C177.229 55.6892 178.113 56.5467 178.113 58.2615C178.113 59.9764 177.281 60.8338 175.618 60.8338ZM165.017 91C163.51 91 162.757 90.2465 162.757 88.7395C162.757 87.8041 163.068 86.5309 163.692 84.92C165.043 81.5942 166.316 78.5282 167.512 75.7221C168.707 72.9159 169.824 70.3696 170.863 68.0831C171.019 67.8232 171.097 67.5374 171.097 67.2256C171.097 66.4981 170.759 65.7186 170.084 64.8872L174.371 64.8092C175.826 64.8092 176.554 65.173 176.554 65.9005C176.554 66.1084 176.502 66.3422 176.398 66.6021C176.294 66.8099 176.164 67.1217 176.008 67.5374L168.837 84.1405C168.109 85.8554 167.745 87.3104 167.745 88.5056C167.745 89.7528 168.135 90.5843 168.915 91H165.017ZM174.907 91.5456C175.946 88.9993 177.245 85.8554 178.804 82.1138C180.363 78.3723 182.26 74.0591 184.495 69.1744C184.962 68.135 185.404 67.2776 185.82 66.6021C186.235 65.9265 186.625 65.4068 186.989 65.0431C187.716 64.3156 188.652 63.9518 189.795 63.9518C189.899 63.9518 190.081 63.9518 190.341 63.9518C190.601 63.9518 190.964 64.0038 191.432 64.1077C192.16 64.1597 192.705 64.1597 193.069 64.1077C191.146 65.2509 188.262 70.2916 184.417 79.2297C185.04 78.3463 185.872 77.385 186.911 76.3456C188.002 75.2544 189.275 74.0591 190.731 72.76C191.666 71.8766 192.705 71.0451 193.848 70.2656C194.992 69.4342 196.239 68.6547 197.59 67.9272C200.656 66.2123 202.916 65.3549 204.372 65.3549C204.735 65.3549 204.995 65.3809 205.151 65.4328C204.32 66.8879 203.54 68.2909 202.813 69.6421C202.137 70.9932 201.487 72.2663 200.864 73.4615C197.85 79.2817 196.161 83.3091 195.797 85.5436C195.745 85.9074 195.693 86.2451 195.641 86.5569C195.641 86.8687 195.641 87.1545 195.641 87.4144C195.641 88.7655 196.135 89.441 197.122 89.441C198.733 89.441 200.656 87.8041 202.891 84.5303L203.982 85.3097C201.332 89.3111 198.655 91.3118 195.953 91.3118C192.679 91.3118 191.042 89.6229 191.042 86.2451C191.042 83.4909 192.731 79.4116 196.109 74.0072C196.629 73.1757 196.888 72.4742 196.888 71.9026C196.888 71.279 196.603 70.9672 196.031 70.9672C195.459 70.9672 194.706 71.279 193.771 71.9026C192.887 72.4742 191.822 73.3316 190.575 74.4749C188.6 76.2937 186.755 78.4762 185.04 81.0226C183.325 83.5169 181.766 86.375 180.363 89.5969C180.052 90.3764 179.246 90.8441 177.947 91C176.284 91.1559 175.271 91.3378 174.907 91.5456ZM212.083 91.5456C208.601 91.5456 206.86 89.3891 206.86 85.0759C206.86 82.6335 207.406 80.0612 208.497 77.359C209.329 75.3323 210.16 73.3576 210.992 71.4349C211.875 69.5121 212.733 67.6673 213.564 65.9005C214.136 64.8092 215.149 64.2636 216.604 64.2636H221.359C220.423 64.9391 219.54 65.8226 218.709 66.9138C217.877 68.0051 217.098 69.3043 216.37 70.8113C212.992 77.6708 211.303 82.5815 211.303 85.5436C211.303 87.8301 212.213 88.9733 214.032 88.9733C217.15 88.9733 220.423 84.6862 223.853 76.1118C223.178 74.7087 222.84 73.0458 222.84 71.1231C222.84 70.1877 222.97 69.2523 223.23 68.3169C223.801 66.3942 224.659 64.9391 225.802 63.9518C226.841 63.0164 227.803 62.5487 228.686 62.5487C229.621 62.5487 230.089 62.9644 230.089 63.7959L229.699 65.199C228.556 68.7326 227.465 71.8506 226.426 74.5528C225.438 77.2031 224.477 79.4376 223.541 81.2564C219.956 88.1159 216.136 91.5456 212.083 91.5456ZM234.769 91C230.976 91 229.079 88.6875 229.079 84.0626C229.079 81.7761 229.624 79.3597 230.716 76.8133C232.275 73.1238 234.483 70.0058 237.341 67.4595C240.148 64.9651 242.798 63.7179 245.292 63.7179C249.138 63.7179 251.06 65.9785 251.06 70.4995C251.06 72.8379 250.489 75.3063 249.346 77.9046C247.994 81.0226 246.046 83.8547 243.499 86.401C240.329 89.467 237.419 91 234.769 91ZM236.016 89.2851C237.211 89.2851 238.485 88.7915 239.836 87.8041C241.551 86.5569 243.499 83.9586 245.682 80.0092C248.072 75.748 249.268 72.3183 249.268 69.72C249.268 67.3815 248.28 66.2123 246.306 66.2123C244.747 66.2123 242.98 67.1997 241.005 69.1744C239.082 71.0971 237.445 73.5395 236.094 76.5015C234.275 80.399 233.366 83.5169 233.366 85.8554C233.366 88.1419 234.249 89.2851 236.016 89.2851ZM263.615 60.8338C261.848 60.8338 260.965 59.9764 260.965 58.2615C260.965 56.5467 261.796 55.6892 263.459 55.6892C265.226 55.6892 266.109 56.5467 266.109 58.2615C266.109 59.9764 265.278 60.8338 263.615 60.8338ZM253.014 91C251.507 91 250.753 90.2465 250.753 88.7395C250.753 87.8041 251.065 86.5309 251.689 84.92C253.04 81.5942 254.313 78.5282 255.508 75.7221C256.704 72.9159 257.821 70.3696 258.86 68.0831C259.016 67.8232 259.094 67.5374 259.094 67.2256C259.094 66.4981 258.756 65.7186 258.081 64.8872L262.368 64.8092C263.823 64.8092 264.55 65.173 264.55 65.9005C264.55 66.1084 264.498 66.3422 264.394 66.6021C264.291 66.8099 264.161 67.1217 264.005 67.5374L256.833 84.1405C256.106 85.8554 255.742 87.3104 255.742 88.5056C255.742 89.7528 256.132 90.5843 256.911 91H253.014ZM272.803 91.3118C267.607 91.3118 265.008 88.7135 265.008 83.5169C265.008 79.1518 266.515 74.8386 269.529 70.5774C272.803 65.9005 276.571 63.5621 280.832 63.5621C284.781 63.5621 286.548 65.3549 286.132 68.9405C286.08 69.8759 285.587 70.8892 284.651 71.9805C283.768 73.0198 282.911 73.5395 282.079 73.5395C281.611 73.5395 281.222 73.3836 280.91 73.0718C282.209 71.7726 283.014 70.4475 283.326 69.0964C283.43 68.7326 283.508 68.4209 283.56 68.161C283.612 67.8492 283.638 67.5634 283.638 67.3036C283.638 65.9525 283.014 65.2769 281.767 65.2769C279.948 65.2769 277.402 67.4855 274.128 71.9026C271.01 76.1118 269.451 80.2171 269.451 84.2185C269.451 88.012 270.906 89.9087 273.817 89.9087C276.623 89.9087 279.351 88.1419 282.001 84.6082L282.469 83.9846L283.56 84.6082L283.014 85.3877C280.26 89.3371 276.857 91.3118 272.803 91.3118ZM292.877 91.3118C290.851 91.3118 289.11 90.6622 287.655 89.3631C286.875 88.6356 286.304 87.8041 285.94 86.8687C285.628 85.8814 285.472 84.7641 285.472 83.5169C285.472 78.7361 287.447 73.9812 291.396 69.2523C294.722 65.2509 298.178 63.2503 301.764 63.2503C302.959 63.2503 303.972 63.5621 304.804 64.1856C305.687 64.9132 306.129 65.8485 306.129 66.9918C306.129 69.8499 304.232 72.708 300.438 75.5662C299.243 76.4496 297.658 77.2291 295.684 77.9046C293.501 78.6321 291.916 78.9959 290.929 78.9959C290.201 80.7627 289.837 82.6335 289.837 84.6082C289.837 87.986 291.085 89.6749 293.579 89.6749C296.853 89.6749 299.919 87.5443 302.777 83.2831L303.089 82.8154L304.414 83.361L304.18 83.8287C302.881 86.427 301.244 88.3238 299.269 89.519C297.295 90.7142 295.164 91.3118 292.877 91.3118ZM291.396 77.6708C292.28 77.6708 293.501 77.385 295.06 76.8133C295.943 76.4496 296.775 76.0598 297.554 75.6441C298.386 75.2284 299.113 74.7607 299.737 74.241C302.595 71.8506 304.024 69.3303 304.024 66.68C304.024 65.5368 303.608 64.9651 302.777 64.9651C301.322 64.9651 299.113 66.7579 296.151 70.3436C294.644 72.1624 293.059 74.6048 291.396 77.6708Z" fill="white"/>
<path d="M259 0H216C218.024 6.28571 225.671 8.14286 229.242 8.28572H250.581V27C250.581 33.1714 256.194 38.9048 259 41V0Z" fill="#FF6601"/>
</svg>
