<svg width="49" height="49" viewBox="0 0 49 49" fill="none" xmlns="http://www.w3.org/2000/svg">
<path d="M6.83284 44.0543H42.1662C46.4318 44.0543 48.6062 41.9211 48.6062 37.6966V16.2249C48.6062 12.0004 46.4318 9.88819 42.1662 9.88819H37.3677C35.7682 9.88819 35.2765 9.56006 34.3533 8.53456L32.6917 6.68831C31.6872 5.56131 30.6416 4.94531 28.5083 4.94531H20.3463C18.2341 4.94531 17.1876 5.56131 16.163 6.68831L14.5013 8.53456C13.5992 9.53906 13.0865 9.88819 11.487 9.88819H6.83197C2.56634 9.88819 0.391968 12.0004 0.391968 16.2249V37.6966C0.391968 41.9211 2.56722 44.0543 6.83284 44.0543ZM33.1843 32.8981L29.3291 27.8117C28.7953 27.1143 29.1445 26.2122 29.9643 26.2122H32.7328C32.7328 21.2081 29.3081 17.7221 24.4886 17.7221C22.9713 17.7221 21.7411 18.0913 20.4898 18.7677C19.0951 19.4449 18.0293 18.6452 18.0293 17.6398C18.0293 17.1481 18.2542 16.5942 18.8492 16.2249C20.1617 15.4252 22.2127 14.7278 24.4886 14.7278C31.031 14.7278 35.7673 19.4861 35.7673 26.2122H38.2086C39.0486 26.2122 39.3575 27.0942 38.8237 27.8117L34.9475 32.8981C34.517 33.4721 33.656 33.4931 33.1843 32.8981ZM24.4886 37.2661C17.9471 37.2661 13.23 32.2821 13.23 25.7817H10.7896C9.92859 25.7817 9.64159 24.8796 10.1745 24.1612L14.0507 19.0757C14.4812 18.5218 15.3422 18.4807 15.7937 19.0757L19.67 24.1612C20.2028 24.8787 19.8537 25.7817 19.0137 25.7817H16.2443C16.2443 30.5391 19.67 34.2517 24.4886 34.2517C26.0268 34.2517 27.2781 33.8824 28.4873 33.2262C29.9232 32.5087 30.9487 33.3697 30.9487 34.4153C30.9487 34.9079 30.7028 35.3796 30.1288 35.7689C28.8365 36.6089 26.7443 37.2661 24.4886 37.2661Z" fill="white"/>
</svg>
