<svg width="25" height="26" viewBox="0 0 25 26" fill="none" xmlns="http://www.w3.org/2000/svg">
<path d="M18.3323 7.96584L19.3884 9.02198L10.599 17.8113L6.31584 13.5281L7.37197 12.472L10.599 15.6991L18.3323 7.96584ZM12.8521 0.983643C13.9552 0.983643 15.0191 1.12446 16.044 1.4061C17.0688 1.68773 18.0272 2.09062 18.919 2.61478C19.8109 3.13893 20.6206 3.76479 21.3481 4.49235C22.0757 5.2199 22.7015 6.03351 23.2257 6.93318C23.7498 7.83285 24.1527 8.79119 24.4344 9.80821C24.716 10.8252 24.8607 11.8892 24.8685 13.0001C24.8685 14.1031 24.7277 15.1671 24.4461 16.1919C24.1645 17.2168 23.7616 18.1751 23.2374 19.067C22.7133 19.9588 22.0874 20.7685 21.3598 21.4961C20.6323 22.2236 19.8187 22.8495 18.919 23.3736C18.0193 23.8978 17.061 24.3007 16.044 24.5823C15.027 24.8639 13.963 25.0087 12.8521 25.0165C11.7491 25.0165 10.6851 24.8757 9.66026 24.594C8.63542 24.3124 7.67708 23.9095 6.78523 23.3854C5.89339 22.8612 5.08369 22.2354 4.35613 21.5078C3.62857 20.7802 3.00272 19.9666 2.47856 19.067C1.95441 18.1673 1.55152 17.2129 1.26988 16.2037C0.988246 15.1945 0.843517 14.1266 0.835693 13.0001C0.835693 11.897 0.976511 10.833 1.25815 9.80821C1.53978 8.78337 1.94268 7.82503 2.46683 6.93318C2.99098 6.04134 3.61684 5.23164 4.3444 4.50408C5.07195 3.77652 5.88557 3.15067 6.78523 2.62651C7.6849 2.10236 8.63933 1.69946 9.64852 1.41783C10.6577 1.13619 11.7256 0.991466 12.8521 0.983643ZM12.8521 23.5144C13.8144 23.5144 14.7414 23.3893 15.6333 23.1389C16.5251 22.8886 17.3622 22.5365 18.1445 22.0828C18.9268 21.6291 19.6387 21.0775 20.2802 20.4282C20.9217 19.7789 21.4694 19.0709 21.9231 18.3042C22.3769 17.5375 22.7328 16.7004 22.991 15.7929C23.2491 14.8855 23.3743 13.9545 23.3665 13.0001C23.3665 12.0378 23.2413 11.1108 22.991 10.2189C22.7406 9.32708 22.3886 8.49 21.9348 7.70768C21.4811 6.92536 20.9296 6.21345 20.2802 5.57195C19.6309 4.93044 18.9229 4.38282 18.1562 3.92908C17.3896 3.47533 16.5525 3.11937 15.645 2.86121C14.7375 2.60304 13.8066 2.47787 12.8521 2.4857C11.8899 2.4857 10.9628 2.61087 10.071 2.86121C9.17913 3.11155 8.34205 3.4636 7.55973 3.91734C6.77741 4.37109 6.0655 4.92262 5.424 5.57195C4.7825 6.22127 4.23487 6.92927 3.78113 7.69594C3.32738 8.46262 2.97143 9.2997 2.71326 10.2072C2.45509 11.1147 2.32992 12.0456 2.33775 13.0001C2.33775 13.9623 2.46292 14.8894 2.71326 15.7812C2.9636 16.6731 3.31565 17.5101 3.76939 18.2925C4.22314 19.0748 4.77467 19.7867 5.424 20.4282C6.07332 21.0697 6.78132 21.6173 7.54799 22.0711C8.31467 22.5248 9.15175 22.8808 10.0592 23.1389C10.9667 23.3971 11.8977 23.5223 12.8521 23.5144Z" fill="#0572B3"/>
</svg>
