<svg width="158" height="199" viewBox="0 0 158 199" fill="none" xmlns="http://www.w3.org/2000/svg">
<g clip-path="url(#clip0_246_2230)">
<path d="M15.9674 37.6665V29.053H62.2607C55.144 15.8768 39.682 17.4132 39.682 17.4132H4.7939C5.02572 17.646 4.23755 60.3409 4.23755 60.3409C17.196 54.358 15.9674 37.6665 15.9674 37.6665Z" fill="white"/>
<path d="M141.217 151.155C140.985 150.922 141.773 108.227 141.773 108.227C128.815 114.21 130.043 130.901 130.043 130.901V139.515H83.7499C90.8666 152.691 100 151.481 106.329 151.155C115.045 150.736 141.217 151.155 141.217 151.155Z" fill="white"/>
<path d="M158 0H99.4669C99.4669 0 107.047 12.152 119.357 11.9425L146.224 12.0589V39.7151C146.224 39.7151 147.568 54.358 158.023 58.106V0H158Z" fill="#BD9C36"/>
<path d="M57.9952 59.3165L58.2039 58.9208C60.2438 56.1505 64.1847 53.6363 71.7882 53.1474C90.032 51.9602 91.8169 66.1142 91.8169 66.1142L141.24 17.3899H57.5548C62.2374 28.5641 75.5436 29.0064 75.5436 29.0064L112.518 29.0763L95.3869 46.5127C90.8665 42.2758 77.3517 40.7859 77.3517 40.7859C63.7442 39.3659 55.3526 43.9753 50.554 48.3286C50.5308 48.3518 50.5076 48.3751 50.4845 48.3984C50.4381 48.445 50.3685 48.4915 50.3222 48.5613C45.2686 52.7517 43.4837 58.1758 43.1591 63.2042L43.0896 63.0413C41.6755 77.4281 48.6068 82.3168 51.5276 84.1094C51.9449 84.412 52.3621 84.6914 52.7794 84.9707C59.5484 89.4171 68.5891 91.8382 72.9473 92.816C72.9473 92.816 76.239 93.5842 79.3453 94.818C80.8753 95.4931 82.2198 96.1682 83.3789 96.8899C83.5875 97.0296 83.7498 97.146 83.9121 97.2158C90.5651 101.453 91.0983 106.132 90.4724 109.182C89.9856 111.207 88.9424 112.58 88.5947 112.999C70.5596 129.97 48.5604 108.227 48.5604 108.227L5.30383 151.318H89.522C82.1735 138.793 70.6755 139.399 70.6755 139.399H33.3534L48.1895 124.872C60.3597 133.509 76.8186 131.879 76.8186 131.879C76.8186 131.879 95.0623 130.459 101.53 116.375C107.998 102.291 99.3741 91.9313 99.3741 91.9313C99.3741 91.9313 94.5755 83.5041 75.7754 79.7561C62.1911 77.0556 58.0416 71.678 56.7666 68.8845C56.303 67.7671 55.4221 64.3915 57.9952 59.3165Z" fill="white"/>
</g>
<path d="M143.397 198.384C141.163 198.384 139.245 197.668 137.641 196.237C136.782 195.435 136.152 194.519 135.752 193.488C135.408 192.4 135.236 191.168 135.236 189.794C135.236 184.525 137.412 179.285 141.765 174.074C145.43 169.664 149.238 167.46 153.19 167.46C154.507 167.46 155.623 167.803 156.54 168.49C157.513 169.292 158 170.323 158 171.583C158 174.733 155.91 177.882 151.729 181.032C150.412 182.006 148.665 182.865 146.489 183.609C144.084 184.411 142.337 184.812 141.249 184.812C140.448 186.759 140.047 188.82 140.047 190.997C140.047 194.719 141.421 196.58 144.17 196.58C147.778 196.58 151.157 194.232 154.306 189.536L154.65 189.021L156.11 189.622L155.853 190.138C154.421 193.001 152.617 195.091 150.441 196.408C148.265 197.726 145.917 198.384 143.397 198.384ZM141.765 183.351C142.738 183.351 144.084 183.036 145.802 182.406C146.776 182.006 147.692 181.576 148.551 181.118C149.467 180.66 150.269 180.144 150.956 179.572C154.106 176.937 155.681 174.16 155.681 171.239C155.681 169.979 155.223 169.349 154.306 169.349C152.703 169.349 150.269 171.325 147.005 175.277C145.344 177.281 143.597 179.973 141.765 183.351Z" fill="white"/>
<path d="M121.275 198.384C115.548 198.384 112.685 195.521 112.685 189.794C112.685 184.983 114.346 180.23 117.667 175.534C121.275 170.38 125.427 167.803 130.123 167.803C134.475 167.803 136.422 169.779 135.964 173.73C135.907 174.761 135.363 175.878 134.332 177.08C133.359 178.226 132.414 178.798 131.497 178.798C130.982 178.798 130.552 178.627 130.209 178.283C131.641 176.851 132.528 175.391 132.872 173.902C132.986 173.501 133.072 173.158 133.129 172.871C133.187 172.528 133.215 172.213 133.215 171.926C133.215 170.437 132.528 169.693 131.154 169.693C129.149 169.693 126.343 172.127 122.735 176.995C119.299 181.633 117.581 186.157 117.581 190.567C117.581 194.748 119.185 196.838 122.392 196.838C125.484 196.838 128.491 194.891 131.411 190.996L131.927 190.309L133.129 190.996L132.528 191.855C129.493 196.208 125.742 198.384 121.275 198.384Z" fill="white"/>
<path d="M111.148 164.796C109.201 164.796 108.228 163.852 108.228 161.962C108.228 160.072 109.144 159.127 110.977 159.127C112.924 159.127 113.897 160.072 113.897 161.962C113.897 163.852 112.981 164.796 111.148 164.796ZM99.4658 198.04C97.805 198.04 96.9746 197.21 96.9746 195.549C96.9746 194.518 97.3182 193.115 98.0054 191.34C99.4944 187.675 100.897 184.296 102.215 181.204C103.532 178.111 104.763 175.305 105.908 172.785C106.08 172.499 106.166 172.184 106.166 171.84C106.166 171.039 105.794 170.18 105.049 169.263L109.774 169.177C111.377 169.177 112.179 169.578 112.179 170.38C112.179 170.609 112.122 170.867 112.007 171.153C111.893 171.382 111.75 171.726 111.578 172.184L103.675 190.481C102.873 192.371 102.472 193.974 102.472 195.291C102.472 196.666 102.902 197.582 103.761 198.04H99.4658Z" fill="white"/>
<path d="M79.359 198.041C75.1785 198.041 73.0883 195.493 73.0883 190.396C73.0883 187.876 73.6896 185.213 74.8922 182.407C76.6102 178.341 79.0441 174.905 82.1938 172.099C85.2862 169.35 88.2069 167.976 90.9557 167.976C95.1935 167.976 97.3124 170.467 97.3124 175.449C97.3124 178.026 96.6825 180.746 95.4226 183.61C93.9337 187.046 91.7861 190.167 88.98 192.973C85.4867 196.352 82.2797 198.041 79.359 198.041ZM80.7335 196.151C82.0506 196.151 83.4537 195.607 84.9426 194.519C86.8325 193.145 88.98 190.281 91.3852 185.929C94.0196 181.233 95.3367 177.453 95.3367 174.59C95.3367 172.013 94.2486 170.724 92.0725 170.724C90.3544 170.724 88.4073 171.813 86.2312 173.989C84.1123 176.108 82.3083 178.799 80.8194 182.063C78.815 186.358 77.8128 189.795 77.8128 192.372C77.8128 194.891 78.7864 196.151 80.7335 196.151Z" fill="white"/>
<path d="M54.3592 198.643C50.5222 198.643 48.6038 196.267 48.6038 191.513C48.6038 188.822 49.2051 185.987 50.4077 183.009C51.324 180.776 52.2402 178.6 53.1565 176.481C54.1301 174.362 55.075 172.329 55.9913 170.382C56.6212 169.179 57.7379 168.578 59.3414 168.578H64.5814C63.5506 169.322 62.5771 170.296 61.6608 171.498C60.7445 172.701 59.8855 174.133 59.0837 175.793C55.3613 183.353 53.5001 188.765 53.5001 192.029C53.5001 194.549 54.5023 195.808 56.5067 195.808C59.9427 195.808 63.5506 191.084 67.3303 181.635C66.5858 180.088 66.2135 178.256 66.2135 176.137C66.2135 175.106 66.3567 174.075 66.643 173.045C67.273 170.926 68.2179 169.322 69.4778 168.234C70.6231 167.203 71.6826 166.688 72.6561 166.688C73.687 166.688 74.2024 167.146 74.2024 168.062L73.7729 169.609C72.513 173.503 71.3104 176.939 70.165 179.917C69.0769 182.837 68.0175 185.3 66.9866 187.304C63.0352 194.864 58.826 198.643 54.3592 198.643Z" fill="white"/>
<path d="M13.39 198.642C14.5354 195.836 15.9671 192.371 17.6851 188.248C19.4031 184.125 21.4934 179.372 23.9559 173.989C24.4713 172.843 24.9581 171.898 25.4162 171.154C25.8744 170.409 26.3039 169.837 26.7047 169.436C27.5065 168.634 28.5373 168.233 29.7972 168.233C29.9117 168.233 30.1122 168.233 30.3985 168.233C30.6848 168.233 31.0857 168.29 31.6011 168.405C32.4029 168.462 33.0042 168.462 33.4051 168.405C31.2861 169.665 28.1078 175.22 23.87 185.07C24.5572 184.096 25.4735 183.037 26.6188 181.891C27.8214 180.689 29.2245 179.372 30.828 177.94C31.8588 176.966 33.0042 176.05 34.2641 175.191C35.5239 174.275 36.8984 173.416 38.3873 172.614C41.7661 170.724 44.2572 169.779 45.8607 169.779C46.2616 169.779 46.548 169.808 46.7198 169.865C45.8035 171.469 44.9445 173.015 44.1427 174.504C43.3982 175.993 42.6824 177.396 41.9952 178.713C38.6737 185.127 36.8125 189.565 36.4116 192.028C36.3543 192.429 36.2971 192.801 36.2398 193.145C36.2398 193.488 36.2398 193.803 36.2398 194.089C36.2398 195.578 36.7838 196.323 37.8719 196.323C39.6472 196.323 41.7661 194.519 44.2286 190.911L45.4312 191.77C42.5106 196.18 39.5613 198.385 36.5834 198.385C32.9755 198.385 31.1716 196.523 31.1716 192.801C31.1716 189.766 33.0328 185.27 36.7552 179.314C37.3279 178.398 37.6142 177.625 37.6142 176.995C37.6142 176.308 37.2992 175.964 36.6693 175.964C36.0394 175.964 35.209 176.308 34.1782 176.995C33.2046 177.625 32.0306 178.57 30.6562 179.83C28.48 181.834 26.447 184.239 24.5572 187.046C22.6674 189.794 20.9493 192.944 19.4031 196.495C19.0595 197.354 18.1719 197.869 16.7402 198.041C14.9076 198.213 13.7909 198.413 13.39 198.642Z" fill="white"/>
<path d="M14.1737 164.797C12.2266 164.797 11.2531 163.852 11.2531 161.962C11.2531 160.072 12.1694 159.127 14.0019 159.127C15.949 159.127 16.9226 160.072 16.9226 161.962C16.9226 163.852 16.0063 164.797 14.1737 164.797ZM2.49114 198.04C0.83038 198.04 0 197.21 0 195.549C0 194.518 0.343599 193.115 1.03081 191.34C2.51977 187.675 3.92283 184.296 5.23998 181.204C6.55713 178.111 7.78838 175.305 8.93373 172.785C9.10554 172.499 9.19143 172.184 9.19143 171.84C9.19143 171.039 8.81921 170.18 8.07473 169.263L12.7993 169.178C14.4028 169.178 15.2045 169.578 15.2045 170.38C15.2045 170.609 15.1473 170.867 15.0327 171.153C14.9182 171.382 14.775 171.726 14.6032 172.184L6.70029 190.481C5.89855 192.371 5.49768 193.974 5.49768 195.292C5.49768 196.666 5.92719 197.582 6.7862 198.04H2.49114Z" fill="white"/>
<defs>
<clipPath id="clip0_246_2230">
<rect width="153.762" height="151.341" fill="white" transform="translate(4.23755)"/>
</clipPath>
</defs>
</svg>
