<svg width="49" height="49" viewBox="0 0 49 49" fill="none" xmlns="http://www.w3.org/2000/svg">
<path d="M3.0625 24.5C3.0625 28.7399 4.31979 32.8847 6.67537 36.41C9.03095 39.9354 12.379 42.6831 16.2962 44.3057C20.2134 45.9282 24.5238 46.3528 28.6822 45.5256C32.8407 44.6984 36.6605 42.6567 39.6586 39.6586C42.6567 36.6605 44.6984 32.8407 45.5256 28.6822C46.3528 24.5238 45.9282 20.2134 44.3057 16.2962C42.6831 12.379 39.9354 9.03095 36.41 6.67537C32.8847 4.31979 28.7399 3.0625 24.5 3.0625C18.8144 3.0625 13.3617 5.32109 9.3414 9.3414C5.32109 13.3617 3.0625 18.8144 3.0625 24.5ZM12.25 22.9688H30.8547L22.3103 14.383L24.5 12.25L36.75 24.5L24.5 36.75L22.3103 34.5649L30.8547 26.0312H12.25V22.9688Z" fill="white"/>
</svg>
