<svg width="57" height="57" viewBox="0 0 57 57" fill="none" xmlns="http://www.w3.org/2000/svg">
<path fill-rule="evenodd" clip-rule="evenodd" d="M28.5 4.75004C31.6189 4.75002 34.7072 5.36432 37.5887 6.55786C40.4702 7.75141 43.0884 9.50081 45.2938 11.7062C47.4992 13.9116 49.2486 16.5298 50.4422 19.4113C51.6357 22.2927 52.25 25.3811 52.25 28.5C52.25 41.6168 41.6168 52.2501 28.5 52.2501C15.3833 52.2501 4.75 41.6168 4.75 28.5C4.75 15.3833 15.3833 4.75004 28.5 4.75004ZM30.875 30.8751H26.125C20.2452 30.8751 15.1973 34.4361 13.02 39.5195C16.4649 44.3501 22.1146 47.5 28.5 47.5C34.8853 47.5 40.535 44.3501 43.98 39.5191C41.8028 34.4361 36.7548 30.8751 30.875 30.8751ZM28.5 11.875C24.565 11.875 21.375 15.065 21.375 19C21.375 22.935 24.565 26.125 28.5 26.125C32.435 26.125 35.625 22.935 35.625 19C35.625 15.065 32.4351 11.875 28.5 11.875Z" fill="#1E1E1E"/>
</svg>
