<svg width="31" height="31" viewBox="0 0 31 31" fill="none" xmlns="http://www.w3.org/2000/svg">
<path d="M11.9479 28.4167L11.4313 24.2834C11.1514 24.1757 10.8879 24.0466 10.6408 23.8959C10.3936 23.7452 10.1512 23.5837 9.91356 23.4115L6.07085 25.0261L2.51877 18.8907L5.84481 16.3719C5.82328 16.2212 5.81252 16.0761 5.81252 15.9366V15.0647C5.81252 14.9244 5.82328 14.7789 5.84481 14.6282L2.51877 12.1094L6.07085 5.974L9.91356 7.58858C10.1504 7.41636 10.3979 7.2549 10.6563 7.10421C10.9146 6.95351 11.1729 6.82435 11.4313 6.71671L11.9479 2.58337H19.0521L19.5688 6.71671C19.8486 6.82435 20.1126 6.95351 20.3606 7.10421C20.6086 7.2549 20.8505 7.41636 21.0865 7.58858L24.9292 5.974L28.4813 12.1094L25.1552 14.6282C25.1768 14.7789 25.1875 14.9244 25.1875 15.0647V15.9353C25.1875 16.0757 25.166 16.2212 25.1229 16.3719L28.449 18.8907L24.8969 25.0261L21.0865 23.4115C20.8497 23.5837 20.6021 23.7452 20.3438 23.8959C20.0854 24.0466 19.8271 24.1757 19.5688 24.2834L19.0521 28.4167H11.9479ZM15.5646 20.0209C16.8132 20.0209 17.8788 19.5796 18.7615 18.6969C19.6441 17.8143 20.0854 16.7487 20.0854 15.5C20.0854 14.2514 19.6441 13.1858 18.7615 12.3032C17.8788 11.4205 16.8132 10.9792 15.5646 10.9792C14.2945 10.9792 13.2232 11.4205 12.3509 12.3032C11.4786 13.1858 11.0429 14.2514 11.0438 15.5C11.0446 16.7487 11.4808 17.8143 12.3522 18.6969C13.2237 19.5796 14.2945 20.0209 15.5646 20.0209Z" fill="white"/>
</svg>
