<svg width="74" height="74" viewBox="0 0 74 74" fill="none" xmlns="http://www.w3.org/2000/svg">
<path d="M37.0001 10.918C22.655 10.918 10.9181 22.6549 10.9181 36.9999C10.9181 51.345 22.655 63.0819 37.0001 63.0819C51.3451 63.0819 63.082 51.345 63.082 36.9999C63.082 22.6549 51.3451 10.918 37.0001 10.918Z" fill="white"/>
<path d="M37 4.625C55.0375 4.625 69.375 18.9625 69.375 37C69.375 55.0375 55.0375 69.375 37 69.375C18.9625 69.375 4.625 55.0375 4.625 37C4.625 18.9625 18.9625 4.625 37 4.625ZM37 0C16.65 0 0 16.65 0 37C0 57.35 16.65 74 37 74C57.35 74 74 57.35 74 37C74 16.65 57.35 0 37 0Z" fill="white"/>
</svg>
